# xmcd
#
# Track frame offsets:
#	150
#	8827
#	22977
#	42250
#	54475
#	65780
#	76900
#	85800
#	96345
#	104800
#
# Disc length: 1554
#
# Revision: 2
# Processed by: cddbd v1.5.1PL0 Copyright (c) Steve Scherf et al.
# Submitted via: dBpowerAMP V4.0
# Normalized: r0:TSWAP
#
DISCID=7c06100a
DTITLE=Various Artist - Country Christmas
DYEAR=2000
DGENRE=Country
TTITLE0=Loretta Lynn - Frosty The Snowman
TTITLE1=Lee Greenwood - The Christmas Song (Chestnuts Roasting On An Open Fire)
TTITLE2=Steve Wariner - Tennessee Christmas
TTITLE3=John Schneider - Please Come Home For Christmas
TTITLE4=Bob Wills - When It's Christmas On The Range
TTITLE5=Ray Stevens - Greatest Christmas That Ever Was
TTITLE6=Roger Miller - Silent Night
TTITLE7=Brenda Lee - Winter Wonderland
TTITLE8=Charlie Rich - Santa Claus' Daughter
TTITLE9=Jerry Lee Lewis - I Can't Have A Merry Chistmas (Without You)
EXTD=From "Christmas Presents" 3 CD collection purchased at\nBarnes and Noble.  Definitive Records and One Way\nRecords produced compilation.
EXTT0=
EXTT1=
EXTT2=
EXTT3=
EXTT4=
EXTT5=
EXTT6=
EXTT7=
EXTT8=
EXTT9=
PLAYORDER=
